<svg xmlns="http://www.w3.org/2000/svg" width="24" height="24" viewBox="0 0 24 24"><title>Privacy-tip-outline-rounded SVG Icon</title><path fill="currentColor" d="M12 16.23q.213 0 .357-.143t.143-.356v-4.654q0-.213-.144-.356q-.144-.144-.357-.144t-.356.144t-.143.356v4.654q0 .212.144.356t.357.144M12 9q.262 0 .438-.177q.177-.177.177-.438t-.177-.439T12 7.77t-.438.177t-.177.439t.177.438T12 9m0 11.842q-.137 0-.287-.025t-.28-.075Q8.48 19.617 6.74 16.926T5 11.1V6.817q0-.514.293-.926t.757-.597l5.385-2q.292-.106.565-.106t.565.106l5.385 2q.464.185.757.597t.293.926V11.1q0 3.135-1.74 5.826t-4.692 3.816q-.131.05-.281.075t-.287.025m0-.942q2.6-.825 4.3-3.3t1.7-5.5V6.798q0-.192-.106-.346t-.298-.23l-5.384-2q-.097-.04-.212-.04t-.212.04l-5.384 2q-.192.076-.298.23T6 6.798V11.1q0 3.025 1.7 5.5t4.3 3.3m0-7.862"/></svg>